<?xml version="1.0" standalone="no"?>
<!DOCTYPE svg PUBLIC "-//W3C//DTD SVG 20010904//EN"
 "http://www.w3.org/TR/2001/REC-SVG-20010904/DTD/svg10.dtd">
<svg version="1.0" xmlns="http://www.w3.org/2000/svg"
 width="900.000000pt" height="900.000000pt" viewBox="0 0 900.000000 900.000000"
 preserveAspectRatio="xMidYMid meet">

<g transform="translate(0.000000,900.000000) scale(0.100000,-0.100000)"
fill="#000000" stroke="none">
<path d="M4571 8593 c-6 -16 -20 -42 -30 -59 -23 -38 -182 -343 -399 -764 -52
-102 -98 -187 -101 -190 -4 -3 -18 -30 -30 -60 -13 -30 -26 -57 -30 -60 -6 -5
-67 -121 -158 -300 -26 -52 -50 -97 -53 -100 -3 -3 -24 -43 -48 -90 -23 -47
-83 -161 -132 -255 -50 -93 -105 -199 -123 -235 -17 -36 -35 -69 -40 -75 -4
-5 -23 -41 -43 -80 -91 -177 -128 -246 -136 -251 -4 -3 -8 -12 -8 -21 0 -9
-13 -38 -30 -65 -52 -84 -89 -78 441 -78 259 0 469 -3 467 -7 -21 -49 -75
-149 -80 -151 -5 -2 -8 -10 -8 -17 0 -8 -6 -20 -12 -27 -7 -7 -28 -42 -45 -78
-18 -36 -55 -105 -81 -155 -27 -49 -73 -135 -102 -190 -29 -55 -65 -122 -80
-150 -66 -119 -128 -237 -220 -415 -26 -52 -52 -100 -57 -105 -4 -6 -19 -33
-33 -60 -13 -28 -45 -88 -71 -135 -51 -95 -105 -195 -169 -315 -23 -44 -86
-161 -140 -260 -53 -99 -127 -236 -162 -305 -36 -69 -80 -151 -97 -184 -56
-105 -35 -103 68 9 41 44 102 109 136 145 33 36 119 128 190 205 71 77 155
167 186 200 31 33 82 89 115 124 32 36 87 94 120 130 66 71 75 81 198 215 44
49 92 101 106 116 14 15 45 49 70 76 25 27 78 85 119 129 41 44 106 114 144
155 38 41 95 102 126 135 87 94 266 287 297 320 38 42 202 220 244 265 19 21
56 60 81 86 25 27 94 103 154 169 60 66 130 143 156 170 26 28 60 64 74 80 15
17 82 89 149 160 68 72 143 153 167 180 24 28 53 59 64 71 77 80 231 248 233
255 2 5 -249 9 -559 9 -534 0 -561 1 -547 18 8 9 27 39 43 67 16 27 32 54 37
60 16 19 58 86 58 92 0 3 14 22 30 43 17 21 30 41 30 45 0 3 41 67 90 141 50
74 90 137 90 139 0 3 29 48 65 101 36 53 65 98 65 100 0 1 18 30 40 63 22 33
40 64 40 69 0 4 13 21 28 38 28 28 102 138 102 150 0 3 14 23 30 44 17 21 30
40 30 43 0 4 100 166 192 310 14 23 44 71 66 107 21 36 62 102 90 148 l52 82
-724 0 -724 0 -11 -27z"/>
<path d="M4200 8543 c-154 -16 -286 -41 -475 -89 -77 -19 -273 -89 -345 -121
-30 -14 -73 -33 -95 -43 -133 -58 -353 -194 -515 -318 -97 -74 -392 -367 -461
-457 -71 -93 -214 -313 -245 -380 -16 -33 -32 -62 -35 -65 -9 -7 -119 -265
-119 -279 0 -6 -4 -19 -10 -29 -33 -61 -102 -356 -125 -537 -17 -131 -19 -466
-5 -603 25 -224 107 -545 182 -711 72 -159 104 -222 156 -311 55 -94 158 -250
171 -260 3 -3 31 -36 61 -75 86 -110 264 -288 393 -392 64 -53 119 -94 121
-92 2 2 24 43 50 91 25 47 62 115 81 150 19 35 50 91 67 126 l33 63 -45 37
c-55 45 -230 219 -289 287 -63 74 -251 359 -251 381 0 2 -18 41 -39 87 -49
101 -116 302 -143 422 -32 146 -40 275 -35 520 6 238 15 302 67 480 12 39 25
86 30 105 9 35 31 90 72 180 12 25 27 59 34 77 8 18 38 72 67 120 29 48 60 99
68 112 22 38 93 134 135 181 175 201 362 365 519 455 28 16 52 32 55 35 9 11
224 116 275 135 28 10 55 22 60 25 29 21 245 81 382 107 l82 16 47 96 c26 53
87 179 137 281 50 102 92 188 94 193 4 7 -139 7 -207 0z"/>
<path d="M5855 8122 c-16 -26 -32 -49 -35 -52 -4 -3 -10 -12 -13 -20 -4 -8
-20 -34 -35 -57 -85 -131 -158 -246 -169 -265 -12 -22 -7 -48 9 -48 5 0 29
-13 53 -30 24 -16 48 -30 54 -30 6 0 11 -4 11 -8 0 -5 21 -22 48 -39 121 -79
339 -290 443 -428 100 -134 149 -214 228 -370 63 -127 134 -326 156 -440 3
-16 13 -64 21 -105 45 -231 44 -506 -1 -730 -9 -41 -18 -90 -21 -108 -6 -41
-50 -186 -70 -229 -8 -17 -14 -36 -14 -41 0 -20 -96 -223 -130 -277 -11 -16
-24 -40 -29 -52 -11 -24 -81 -126 -149 -218 -41 -54 -253 -272 -327 -336 -28
-24 -164 -121 -230 -164 -100 -66 -318 -171 -440 -212 -247 -84 -482 -122
-745 -123 -180 0 -399 25 -535 60 -66 17 -138 36 -160 41 -21 6 -44 14 -50 18
-5 5 -28 14 -50 21 -22 7 -58 20 -80 30 -83 36 -69 44 -231 -123 -82 -85 -160
-166 -173 -180 l-24 -27 114 -54 c280 -134 553 -212 874 -247 284 -32 663 -16
900 39 125 29 217 53 255 67 19 7 69 25 110 40 91 32 214 85 296 128 148 77
192 102 244 137 84 56 194 133 206 145 6 5 26 21 44 35 147 110 390 371 512
553 58 85 138 214 138 223 0 2 13 25 28 51 50 85 160 349 183 438 4 17 19 73
34 125 57 208 69 319 70 640 0 386 -19 516 -127 845 -146 445 -457 891 -833
1191 -98 78 -225 169 -295 212 l-36 21 -29 -47z"/>
<path d="M4170 2310 l0 -620 160 0 160 0 0 318 0 318 53 25 c39 18 69 24 123
24 81 0 118 -15 141 -59 21 -41 32 -185 33 -423 l0 -203 155 0 155 0 0 303 c0
342 -8 423 -47 482 -26 40 -69 85 -80 85 -4 0 -14 6 -22 14 -20 17 -135 46
-185 46 -71 0 -179 -33 -251 -76 l-70 -42 -3 214 -2 214 -160 0 -160 0 0 -620z"/>
<path d="M670 2760 l0 -120 200 0 200 0 -2 -475 -3 -475 170 2 170 3 0 473 0
472 198 0 197 0 0 120 0 120 -565 0 -565 0 0 -120z"/>
<path d="M5310 2760 l0 -120 200 0 200 0 0 -475 0 -475 170 0 170 0 0 475 0
475 195 0 195 0 0 120 0 120 -565 0 -565 0 0 -120z"/>
<path d="M2298 2599 c-110 -23 -179 -57 -243 -117 -73 -70 -91 -97 -129 -200
-22 -59 -22 -231 1 -298 46 -138 146 -232 303 -284 53 -18 97 -23 235 -27 193
-6 268 2 395 44 l55 18 3 123 c2 97 0 122 -11 122 -7 0 -40 -14 -72 -32 -139
-75 -309 -98 -438 -58 -78 24 -118 55 -146 113 -40 83 -65 77 334 77 l355 0 0
83 c-1 253 -106 391 -331 438 -112 23 -197 23 -311 -2z m242 -190 c40 -23 85
-100 78 -135 -3 -18 -16 -19 -196 -22 -188 -2 -192 -2 -192 18 0 27 32 90 56
111 62 54 184 67 254 28z"/>
<path d="M3505 2604 c-33 -7 -70 -13 -82 -14 -43 0 -154 -62 -213 -117 -42
-38 -71 -77 -96 -128 l-36 -72 4 -144 c3 -134 5 -148 31 -200 53 -109 143
-185 267 -229 107 -36 347 -40 495 -6 6 1 31 10 58 20 l47 19 0 123 0 124 -29
0 c-16 0 -42 -10 -58 -23 -41 -34 -81 -54 -142 -72 -70 -19 -110 -19 -185 2
-110 31 -166 117 -166 255 0 79 29 154 78 201 33 31 126 67 176 67 56 0 167
-40 226 -81 31 -22 66 -39 78 -39 22 0 22 3 22 129 l0 129 -47 17 c-27 9 -68
20 -93 25 -25 5 -65 13 -90 19 -60 14 -171 12 -245 -5z"/>
<path d="M6940 2563 c-45 -5 -145 -36 -190 -59 -19 -10 -64 -47 -100 -83 -90
-92 -112 -148 -118 -304 -5 -129 4 -181 45 -264 65 -135 248 -241 396 -231
l45 3 -40 95 c-45 106 -70 163 -78 170 -3 3 -14 25 -25 49 -16 36 -20 67 -19
156 0 101 2 115 28 162 48 87 110 115 221 99 35 -6 56 -17 83 -44 47 -47 61
-91 72 -222 6 -85 13 -118 38 -170 16 -36 44 -100 62 -143 l32 -78 27 17 c44
29 89 86 123 154 32 65 33 66 33 220 l0 155 -34 68 c-98 193 -314 283 -601
250z"/>
<path d="M6968 2134 c-44 -24 -68 -66 -68 -121 0 -26 7 -57 15 -67 8 -11 15
-25 15 -32 0 -7 14 -42 30 -77 17 -36 30 -68 30 -70 0 -3 14 -36 31 -74 47
-103 56 -126 64 -150 3 -13 11 -23 16 -23 6 0 8 -4 5 -8 -3 -5 9 -40 27 -78
18 -38 44 -96 57 -129 13 -33 27 -64 32 -70 4 -5 8 -16 8 -25 1 -8 9 -33 20
-55 20 -42 26 -75 12 -75 -4 0 -32 16 -62 36 -30 20 -56 36 -57 35 -2 0 -44
19 -95 44 -110 54 -172 61 -236 25 -53 -30 -86 -89 -77 -137 19 -101 423 -402
781 -579 71 -36 116 -65 125 -80 7 -13 16 -24 21 -24 4 0 8 -5 8 -11 0 -17 92
-119 128 -141 57 -35 137 -21 377 63 17 5 77 26 134 46 168 57 214 101 214
203 0 31 -8 80 -19 109 l-19 53 40 71 c33 61 39 83 43 147 3 62 -4 115 -23
170 -1 3 -6 20 -10 38 -4 17 -11 32 -15 32 -4 0 -10 13 -13 29 -3 16 -27 72
-52 126 -25 53 -45 100 -45 104 0 23 -78 160 -104 184 -71 63 -187 55 -244
-18 l-20 -25 -26 40 c-64 98 -213 108 -278 19 -24 -33 -38 -37 -38 -12 0 9
-18 33 -39 54 -69 65 -164 64 -234 -2 -45 -44 -47 -45 -47 -24 0 12 -21 61
-51 117 -5 10 -9 22 -9 28 0 5 -14 40 -31 77 -17 38 -40 88 -51 113 -63 139
-88 161 -182 159 -34 -1 -73 -8 -88 -15z"/>
<path d="M1747 1573 c-4 -3 -7 -53 -7 -110 l0 -103 170 0 170 0 0 110 0 110
-163 0 c-90 0 -167 -3 -170 -7z"/>
<path d="M3610 955 l0 -625 155 0 155 0 0 148 0 147 40 45 c36 39 42 43 51 28
5 -9 16 -24 24 -32 8 -8 15 -17 15 -20 0 -3 18 -32 41 -63 22 -32 70 -102 107
-155 l67 -98 183 0 182 0 -17 28 c-10 15 -50 72 -91 127 -40 55 -79 109 -86
120 -34 48 -146 201 -156 213 -7 7 -9 19 -7 26 6 15 196 234 279 321 l58 60
-183 3 -182 3 -35 -39 c-35 -39 -81 -94 -136 -162 -16 -19 -31 -37 -34 -40 -3
-3 -24 -27 -45 -55 -83 -104 -75 -135 -75 278 l0 367 -155 0 -155 0 0 -625z"/>
<path d="M452 1403 l3 -118 198 0 197 0 0 -477 0 -478 170 0 170 0 0 478 0
477 195 -3 195 -3 0 121 0 120 -565 0 -566 0 3 -117z"/>
<path d="M2870 1241 c-58 -15 -148 -58 -175 -82 -18 -17 -25 -9 -25 31 l0 40
-155 0 -155 0 0 -450 0 -450 155 0 155 0 0 320 0 321 48 21 c69 31 186 36 230
9 18 -12 36 -31 41 -44 13 -34 20 -175 21 -414 l0 -213 160 0 160 0 0 308 c0
331 -6 396 -43 469 -62 125 -239 181 -417 134z"/>
<path d="M5179 1256 c-2 -2 -27 -7 -54 -9 -110 -12 -222 -68 -298 -150 -123
-131 -152 -345 -74 -530 52 -122 184 -209 375 -247 78 -15 305 -12 392 5 86
17 173 40 189 49 16 10 15 246 -1 246 -6 0 -44 -16 -84 -35 -112 -55 -156 -65
-284 -65 -119 0 -159 9 -220 47 -40 25 -80 88 -80 127 l0 26 348 0 347 0 -5
132 c-5 104 -10 142 -25 173 -64 131 -151 192 -310 221 -74 13 -206 19 -216
10z m128 -192 c55 -18 93 -49 93 -76 0 -10 5 -18 10 -18 6 0 10 -16 10 -35 l0
-35 -194 0 -193 0 7 38 c12 69 38 95 125 126 53 19 85 19 142 0z"/>
<path d="M1750 780 l0 -450 160 0 160 0 0 450 0 450 -160 0 -160 0 0 -450z"/>
<path d="M5950 780 l0 -450 160 0 160 0 0 299 0 300 23 7 c29 10 30 10 116 24
68 11 119 9 209 -6 l32 -6 0 141 0 141 -75 0 c-88 0 -157 -23 -242 -80 l-58
-40 -3 60 -3 60 -159 0 -160 0 0 -450z"/>
</g>
</svg>
