<?xml version="1.0" standalone="no"?>
<!DOCTYPE svg PUBLIC "-//W3C//DTD SVG 20010904//EN"
 "http://www.w3.org/TR/2001/REC-SVG-20010904/DTD/svg10.dtd">
<svg version="1.0" xmlns="http://www.w3.org/2000/svg"
 width="426.000000pt" height="118.000000pt" viewBox="0 0 426.000000 118.000000"
 preserveAspectRatio="xMidYMid meet">

<g transform="translate(0.000000,118.000000) scale(0.100000,-0.100000)"
fill="#000000" stroke="none">
<path d="M480 883 c-80 -152 -146 -280 -148 -284 -2 -5 39 -9 92 -9 64 0 96
-4 96 -11 0 -9 -171 -335 -267 -509 l-25 -45 45 45 c25 25 179 189 342 365
l296 320 -115 3 c-64 1 -116 5 -116 7 0 2 46 75 103 162 57 87 113 175 126
196 l23 37 -154 0 -153 0 -145 -277z"/>
<path d="M514 1140 c-70 -10 -118 -27 -194 -66 -88 -46 -150 -101 -203 -182
-150 -225 -124 -505 65 -696 l70 -71 24 49 25 48 -21 15 c-41 29 -110 134
-130 200 -38 124 -20 269 47 376 58 93 171 173 280 201 43 11 51 18 75 62 27
49 35 75 21 73 -5 -1 -31 -5 -59 -9z"/>
<path d="M2630 855 l0 -225 55 0 55 0 0 115 c0 128 4 135 74 135 49 0 56 -19
56 -144 l0 -106 55 0 55 0 0 134 c0 129 -1 136 -25 164 -41 49 -95 51 -197 7
-16 -6 -18 0 -18 69 l0 76 -55 0 -55 0 0 -225z"/>
<path d="M872 1014 l-30 -47 48 -36 c194 -146 238 -412 101 -611 -46 -67 -139
-140 -218 -171 -85 -33 -226 -37 -313 -10 l-65 20 -32 -31 c-18 -18 -33 -35
-33 -39 0 -9 95 -46 150 -59 65 -14 186 -12 258 5 151 36 307 153 375 283 107
203 86 435 -54 612 -34 43 -135 130 -151 130 -3 0 -19 -21 -36 -46z"/>
<path d="M1340 1020 l0 -40 75 0 75 0 0 -175 0 -175 60 0 60 0 0 175 0 175 75
0 75 0 0 40 0 40 -210 0 -210 0 0 -40z"/>
<path d="M3050 1020 l0 -40 70 0 70 0 0 -175 0 -175 60 0 60 0 0 175 0 175 75
0 75 0 0 40 0 40 -205 0 -205 0 0 -40z"/>
<path d="M1940 961 c-90 -18 -140 -81 -140 -173 0 -66 27 -112 81 -140 49 -25
146 -33 219 -18 l60 13 0 44 c0 39 -2 44 -17 38 -69 -29 -101 -36 -142 -30
-42 6 -91 41 -91 65 0 6 46 10 130 10 l130 0 0 48 c0 56 -26 104 -68 126 -36
19 -116 27 -162 17z m106 -86 c8 -13 13 -29 9 -35 -8 -12 -132 -14 -139 -1 -3
5 4 20 15 35 28 36 91 37 115 1z"/>
<path d="M2370 961 c-54 -12 -99 -39 -121 -74 -16 -26 -19 -45 -17 -104 3 -64
7 -76 33 -103 50 -52 161 -74 246 -48 38 11 39 13 39 55 0 31 -4 43 -14 43 -8
0 -18 -4 -21 -10 -3 -5 -23 -14 -45 -20 -78 -21 -141 35 -126 112 15 74 92
102 164 58 18 -11 35 -20 37 -20 3 0 5 20 5 45 0 32 -5 47 -17 54 -26 13 -123
21 -163 12z"/>
<path d="M3602 937 c-78 -30 -121 -105 -108 -191 12 -77 85 -143 149 -134 l25
3 -30 65 c-23 51 -29 75 -25 112 5 63 20 78 73 78 51 0 74 -25 74 -81 0 -45
46 -152 63 -147 22 7 57 90 57 138 0 56 -33 117 -78 143 -41 24 -153 32 -200
14z"/>
<path d="M3647 782 c-10 -10 -17 -25 -17 -33 1 -8 32 -86 70 -174 38 -88 67
-161 66 -162 -2 -2 -33 11 -69 28 -60 28 -69 29 -94 17 -47 -22 -43 -58 14
-105 58 -48 168 -121 241 -157 28 -14 52 -30 52 -34 0 -4 11 -20 25 -35 34
-35 66 -34 180 6 101 36 124 61 105 112 -7 19 -6 33 5 55 29 55 18 110 -45
243 -36 75 -64 92 -109 66 -23 -13 -28 -13 -43 3 -22 22 -71 23 -88 3 -11 -14
-14 -13 -27 5 -18 26 -78 28 -92 3 -12 -22 -11 -24 -50 72 -18 44 -40 86 -49
93 -23 17 -56 15 -75 -6z"/>
<path d="M1740 550 l0 -40 60 0 60 0 0 40 0 40 -60 0 -60 0 0 -40z"/>
<path d="M2420 365 l0 -225 55 0 55 0 0 48 c0 26 7 56 16 67 15 20 15 20 35
-5 10 -14 32 -44 47 -67 l27 -43 68 0 68 0 -67 91 -67 90 39 42 c22 23 50 54
63 70 l24 27 -65 0 -66 0 -52 -62 c-29 -35 -56 -64 -61 -66 -5 -2 -9 55 -9
127 l0 131 -55 0 -55 0 0 -225z"/>
<path d="M1260 525 l0 -45 75 0 75 0 0 -170 0 -170 60 0 60 0 0 170 0 170 70
0 70 0 0 45 0 45 -205 0 -205 0 0 -45z"/>
<path d="M2115 450 c-47 -24 -45 -24 -45 -5 0 12 -13 15 -55 15 l-55 0 0 -160
0 -160 55 0 55 0 0 114 0 114 31 11 c83 29 99 7 99 -132 l0 -107 61 0 61 0 -4
127 c-2 74 -9 137 -16 150 -29 53 -118 68 -187 33z"/>
<path d="M2920 448 c-25 -13 -55 -39 -68 -58 -21 -30 -23 -45 -20 -104 4 -67
5 -70 46 -106 23 -21 56 -40 73 -44 50 -10 173 -7 208 5 28 10 31 15 31 54 l0
44 -42 -19 c-25 -11 -65 -20 -96 -20 -46 0 -58 4 -83 29 -16 16 -29 34 -29 40
0 7 44 11 130 11 l130 0 0 44 c0 53 -32 104 -80 128 -51 26 -144 24 -200 -4z
m153 -70 c9 -11 17 -24 17 -29 0 -5 -34 -9 -75 -9 -41 0 -75 3 -75 6 0 3 5 14
11 25 22 42 89 46 122 7z"/>
<path d="M1740 300 l0 -160 55 0 55 0 0 160 0 160 -55 0 -55 0 0 -160z"/>
<path d="M3280 300 l0 -160 60 0 60 0 0 109 0 108 42 6 c23 3 55 3 70 0 28 -5
28 -5 28 46 0 51 0 51 -33 51 -18 0 -49 -9 -70 -20 l-37 -20 0 20 c0 18 -7 20
-60 20 l-60 0 0 -160z"/>
</g>
</svg>
